<svg version="1.1" id="One_Color" xmlns="http://www.w3.org/2000/svg" xmlns:xlink="http://www.w3.org/1999/xlink" x="0px" y="0px" viewBox="0 0 512 512" enable-background="new 0 0 512 512" xml:space="preserve">
<g>
<path fill="#ffffff" d="M399.272,86.806c5.92,5.36,7.2,14.32,2.64,20.8c-4.88,6.88-12.8,13.84-24.32,12
		c3.68-1.84,6.4-9.92,6.4-19.6c0-11.04-3.6-20-8-20s-8,8.96-8,20c0,8.32,2,15.36,4.88,18.4c-5.04-1.76-10.56-5.04-16.72-10.48
		c-2.64-2.32-3.6-5.92-2.24-9.12C358.632,87.286,372.792,62.646,399.272,86.806z" id="id_137" class=""></path>
<path fill="#ffffff" d="M318.072,98.806c1.36,3.2,0.4,6.8-2.24,9.12c-10.72,9.44-19.6,12.48-26.72,11.92
		c3.92-1.44,6.88-9.76,6.88-19.84c0-11.04-3.6-20-8-20s-8,8.96-8,20c0,9.28,2.56,17.12,6,19.36c-7.12-1.6-12.32-6.72-15.92-11.76
		c-4.56-6.48-3.28-15.44,2.64-20.8C299.192,62.646,313.352,87.286,318.072,98.806z" id="id_138" class=""></path>
<g>
<ellipse fill="#000000" cx="287.992" cy="100.006" rx="8" ry="20" id="id_139" class=""></ellipse>
<ellipse fill="#ffffff" cx="375.992" cy="100.006" rx="8" ry="20" id="id_140" class=""></ellipse>
<path fill="#ffffff" d="M318.102,98.79c-4.777-11.493-18.881-36.132-45.409-11.99c-5.876,5.348-7.212,14.361-2.606,20.835
			c7.448,10.47,22.072,21.278,45.761,0.282C318.438,105.621,319.43,101.987,318.102,98.79z" id="id_141" class=""></path>
<path fill="#ffffff" d="M353.882,98.79c4.777-11.493,18.881-36.132,45.409-11.99c5.876,5.348,7.212,14.361,2.606,20.835
			c-7.448,10.47-22.072,21.278-45.761,0.282C353.546,105.621,352.554,101.987,353.882,98.79z" id="id_142" class=""></path>
</g>
<ellipse fill="#000000" cx="287.992" cy="100.006" rx="8" ry="20" id="id_143" class=""></ellipse>
<ellipse fill="#000000" cx="375.992" cy="100.006" rx="8" ry="20" id="id_144" class=""></ellipse>
<path fill="#000000" d="M72.297,459.623c0.871,21.789,17.5,37.43,29.938,47.305c4.129,3.273,9.375,5.078,14.781,5.078h19.117
		c13.156,0,23.859-10.703,23.859-23.859c0-7.672-3.719-14.914-9.777-19.258l-14.816-11.242c-0.512-0.383-0.52-0.93-0.477-1.211
		c0.082-0.547,0.363-0.648,0.512-0.703c14.453-5.367,38.422-5.312,71.566,0.211c15.994,2,48.756,4.791,67.579-2.475
		c3.192,6.599,9.123,11.705,16.616,13.584l11.418,2.859c2.016,0.5,4.07,0.742,6.117,0.742c4.973,0,9.891-1.453,14.086-4.25
		c6.348-4.234,10.418-11.016,11.168-18.602c0.394-3.974-0.247-7.869-1.627-11.489l5.849-1.95
		c2.548,7.105,7.203,13.409,13.517,17.915c9.332,6.672,20.754,8.398,31.32,4.773c1.543-0.531,3.055-1.156,4.527-1.891
		c11.473-5.742,14.559-18.32,8.258-33.656c-2.098-5.109-2.746-10.906-1.871-16.773c11.797-78.898,7.457-197,6.465-219.875
		c-0.109-2.562,1.168-5.078,3.418-6.719c28.152-20.516,28.152-52.781,28.152-90.133c0-41.07-15.895-81.281-16.57-82.969
		c-1-2.5-3.188-4.328-5.82-4.867c-2.617-0.523-5.363,0.281-7.266,2.18l-44.645,44.641c-18.066-4.656-35.188-1.844-43.32,0.078
		L269.648,2.35c-1.816-1.82-4.426-2.68-6.938-2.242c-2.539,0.414-4.723,2.023-5.875,4.32c-0.879,1.766-8.84,19.062-16.781,82.586
		c-6.18,49.445,10.188,76.906,20.477,88.438c-30.566,27.828-127.844,126.258-95.992,224.391
		c-21.219,0.352-59.785,4.078-79.688,25.133C75.976,434.366,71.75,446.022,72.297,459.623z M96.48,435.967
		c16.469-17.422,53.266-19.883,68.32-20.125c5.094-0.086,9.711-2.5,12.664-6.625c2.965-4.148,3.762-9.328,2.188-14.203
		c-29.539-91.422,71.164-189.086,91.656-207.734c6.332-5.773,6.93-15.359,1.363-21.828c-8.578-9.961-22.156-33.133-16.742-76.453
		c4.348-34.766,8.699-55.086,11.629-66.109l38.777,38.773c2.141,2.141,5.309,2.898,8.188,1.93c0.215-0.078,21.715-7.07,42.938,0
		c2.883,0.977,6.039,0.211,8.188-1.93l38.98-38.977c4.57,14.391,11.363,40.039,11.363,65.32c0,35.688,0,61.477-21.574,77.203
		c-6.59,4.805-10.32,12.406-9.98,20.336c0.602,13.867,5.523,137.727-6.305,216.828c-1.301,8.719-0.301,17.438,2.898,25.211
		c4.414,10.75,0.625,12.641-0.605,13.258c-0.828,0.414-1.684,0.773-2.574,1.078c-5.621,1.914-11.758,0.953-16.836-2.664
		c-5.648-4.031-9.023-10.547-9.023-17.422v-93.828c0-4.422-3.582-8-8-8s-8,3.578-8,8v90.237l-8,2.667V296.006c0-4.422-3.582-8-8-8
		s-8,3.578-8,8v136c0,2.125,0.848,4.164,2.355,5.664l1.023,1.023c1.988,1.992,2.969,4.734,2.691,7.531
		c-0.277,2.805-1.777,5.305-4.121,6.867c-2.184,1.453-4.914,1.914-7.457,1.297l-11.402-2.852c-4.176-1.047-7.09-4.781-7.09-9.078
		V296.006c0-4.422-3.582-8-8-8s-8,3.578-8,8v20.708c-16.939-14.985-32.48-12.756-33.312-12.599
		c-4.293,0.711-7.141,4.719-6.516,9.023c0.621,4.305,4.68,7.266,8.98,6.781c0.643-0.083,15.766-1.562,30.848,21.287v96.164
		c-5.535,4.406-32.409,6.516-62.684,2.745c-36.105-6.023-62.09-5.812-79.449,0.617c-5.824,2.172-9.852,7.164-10.766,13.367
		c-0.922,6.25,1.621,12.492,6.633,16.297l14.992,11.367c2.051,1.469,3.273,3.859,3.273,6.383c0,4.336-3.527,7.859-7.859,7.859
		h-19.117c-1.809,0-3.527-0.57-4.832-1.609c-16.059-12.75-23.43-23.672-23.902-35.414C87.914,449.725,90.593,442.194,96.48,435.967z
		" id="id_145" class=""></path>
<path fill="#000000" d="M321.187,123.803c-1.457,2.359-1.59,5.305-0.352,7.781l2.332,4.664c1.017,2.034,2.534,3.65,4.267,4.957
		c-0.803,4.677-2.748,10.801-7.443,10.801c-4.418,0-8,3.578-8,8s3.582,8,8,8c7.163,0,12.333-2.983,16-7.289
		c3.667,4.306,8.837,7.289,16,7.289c4.418,0,8-3.578,8-8s-3.582-8-8-8c-4.693,0-6.642-6.123-7.445-10.799
		c1.734-1.307,3.252-2.923,4.27-4.958l2.332-4.664c1.238-2.477,1.105-5.422-0.352-7.781s-4.031-3.797-6.805-3.797h-16
		C325.218,120.006,322.644,121.444,321.187,123.803z" id="id_146" class=""></path>
<path fill="#000000" d="M290.73,127.928c9.695,0,19.91-4.703,30.426-14.023c5.191-4.602,6.934-11.914,4.336-18.18l-0.004-0.008
		c-3.543-8.523-11.648-23.312-26.105-26.531c-10.238-2.289-21.039,1.656-32.074,11.695c-9.023,8.211-10.633,21.703-3.742,31.398
		c6.457,9.07,14.688,14.414,23.809,15.453C288.484,127.866,289.605,127.928,290.73,127.928z M276.605,103.006
		c-2.164-3.047-1.52-7.562,1.473-10.289c4.234-3.852,10.188-8.141,15.703-8.141c0.715,0,1.426,0.07,2.121,0.227
		c7.68,1.711,12.918,12.5,14.812,17.055l7.387-3.07l-7.559,3.148c-8.07,7.148-15.414,10.609-21.352,9.906
		C284.64,111.319,280.406,108.342,276.605,103.006z" id="id_147" class=""></path>
<path fill="#000000" d="M381.254,127.928c1.125,0,2.246-0.062,3.355-0.195c9.121-1.039,17.352-6.383,23.809-15.461
		c6.891-9.688,5.281-23.18-3.738-31.383c-11.039-10.047-21.832-13.992-32.078-11.703c-14.457,3.219-22.562,18.008-26.105,26.531
		l-0.004,0.008c-2.598,6.266-0.855,13.578,4.34,18.18C361.343,123.225,371.558,127.928,381.254,127.928z M376.082,84.803
		c6.031-1.383,13.035,3.562,17.828,7.922c2.988,2.719,3.633,7.234,1.469,10.273c-3.801,5.344-8.035,8.32-12.586,8.844
		c-5.832,0.68-13.254-2.742-21.473-10.102C363.254,97.116,368.465,86.498,376.082,84.803z" id="id_148" class=""></path>
</g>
</svg>